<?xml version="1.0" encoding="utf-8"?>
<svg width="621px" height="621px" viewBox="0 0 621 621" version="1.1" xmlns:xlink="http://www.w3.org/1999/xlink" xmlns="http://www.w3.org/2000/svg">
  <desc>Created with Lunacy</desc>
  <defs>
    <path d="M0 0L512.001 0L512.001 512.001L0 512.001L0 0Z" id="path_1" />
    <clipPath id="mask_1">
      <use xlink:href="#path_1" />
    </clipPath>
  </defs>
  <g id="pencil-(2)" transform="matrix(0.9702957 -0.2419219 0.2419219 0.9702957 0 123.86425)">
    <path d="M0 0L512.001 0L512.001 512.001L0 512.001L0 0Z" id="Background" fill="none" stroke="none" />
    <g clip-path="url(#mask_1)">
      <g id="Group" transform="translate(8.392334E-05 0.00012207031)">
        <g id="Group">
          <path d="M449.667 15.8989L496.063 62.2989C517.314 83.5499 517.311 117.944 496.063 139.192L150.875 484.406C148.741 486.541 145.895 488.009 143 488.549L17.7309 511.75C12.8799 512.649 7.88991 511.104 4.39291 507.607C0.899915 504.114 -0.648085 499.125 0.250915 494.268L23.4489 368.988C23.9669 366.167 25.4209 363.283 27.5909 361.113C47.9639 340.739 352.82 35.8599 372.779 15.8989C393.978 -5.29913 428.468 -5.30012 449.667 15.8989ZM456.691 136.14L474.85 117.979C484.375 108.453 484.375 93.0389 474.85 83.5139L428.454 37.1139C418.951 27.6109 403.492 27.6119 393.991 37.1139L375.832 55.2749L456.691 136.14ZM137.914 450.585L137.368 450.046L137.721 449.983L91.0001 404.287L56.4099 370.151L353.975 76.4879L435.479 156.923L137.914 450.585ZM91.0001 404.287L55.4244 369.492L36.7209 468.276L137.368 450.046L91.0001 404.287Z" id="Shape" fill="#FD8D10" fill-rule="evenodd" stroke="none" />
        </g>
      </g>
    </g>
  </g>
</svg>